<?xml version="1.0" encoding="utf-8"?>
<!DOCTYPE svg PUBLIC "-//W3C//DTD SVG 1.0//EN" "http://www.w3.org/TR/2001/REC-SVG-20010904/DTD/svg10.dtd">
<svg version="1.0" xmlns="http://www.w3.org/2000/svg" width="4000px" height="4000px" viewBox="0 0 4000 4000" preserveAspectRatio="xMidYMid meet">
 <g fill="#ffffff">
  <path d="M1275.20 3931 c-0.60 -1.60 -3.20 -3 -5.60 -3 -2.60 -0.20 -6.60 -2.80 -9.60 -6.40 -2.80 -3.60 -14.60 -16.20 -26.40 -28.20 -12 -11.80 -21.60 -22.20 -21.60 -22.80 0 -1.40 -15.20 -16.60 -16.60 -16.60 -2.60 0 -75.40 -71.40 -75.40 -74 0 -1 -1.20 -2.60 -2.60 -3.40 -1.60 -0.80 -4.40 -4 -6.40 -7 -1.80 -3.20 -4.20 -5.60 -5.20 -5.60 -3 0 -9.80 -7.80 -9.80 -11.20 0 -1.80 -13.40 -16.60 -30 -33.20 -16.40 -16.40 -30 -30.60 -30 -31.40 0 -1 -2.40 -3.40 -5.40 -5.40 -3.20 -2 -7.80 -6 -10.60 -9.20 -2.60 -3 -5.60 -5.60 -6.40 -5.60 -2.40 0 -67.60 -67 -67.60 -69.60 0 -0.60 -4 -5 -9 -9.80 -5 -4.60 -9 -10.40 -9 -12.60 0 -2.20 -1.40 -4.60 -3.20 -5.40 -1.60 -0.60 -10.20 -8 -18.80 -16.40 -8.60 -8.40 -22.40 -21.80 -30.80 -29.80 -8.40 -8 -15.20 -15 -15.20 -15.80 0 -0.60 -4 -5.20 -9 -10 -5 -4.60 -9 -10.20 -9 -12 0 -3.40 -8 -12.60 -10.80 -12.60 -0.80 0 -5.20 -4.20 -9.80 -9.20 -4.60 -5.20 -14 -15.20 -20.80 -22.20 -7 -7 -12.60 -14.60 -12.60 -16.80 0 -2.20 -1.40 -4.40 -3 -5 -1.60 -0.80 -3 -2.20 -3 -3.20 0 -1.20 -6.80 -8.80 -15 -17 -8.20 -8 -15 -15.80 -15 -17.20 0 -2.40 -8.40 -11.40 -10.60 -11.40 -2.80 0 -21.40 -20.40 -21.40 -23.40 0 -1.80 -3.80 -7 -8.60 -11.60 -4.80 -4.60 -9.20 -9.80 -10 -11.60 -0.60 -1.80 -2.20 -3.40 -3.40 -3.40 -1 0 -2 -2 -2 -4.40 0 -2.60 -4.60 -8.80 -12 -16 -6.60 -6.40 -12 -13 -12 -14.80 0 -3 -1.80 -5.40 -12.40 -17 -2 -2 -3.60 -5.60 -3.60 -7.80 0 -2.20 -1.40 -4.60 -3.20 -5.40 -5.20 -2 -16.80 -14.40 -16.80 -18 0 -1.80 -4 -7.20 -9 -12 -5 -4.60 -9 -10 -9 -12 0 -1.80 -4 -7.20 -9 -12 -5 -4.60 -9 -10 -9 -12 0 -1.80 -4 -7.20 -9 -12 -5 -4.60 -9 -10 -9 -12 0 -1.80 -4 -7.20 -9 -12 -6 -5.80 -9 -10.20 -9 -13.60 0 -2.80 -1.40 -5.60 -3.20 -6.40 -5.40 -2 -16.80 -14.40 -16.80 -18.20 0 -2 -2.60 -5.80 -6 -8.40 -3.20 -2.80 -5.80 -7 -6 -9.20 0 -2.40 -2.40 -6 -5.60 -8 -7 -4.60 -10.20 -8.80 -10.40 -13.60 0 -2.20 -4 -7.80 -9 -12.60 -5.60 -5.20 -9 -10.20 -9 -13.20 0 -2.60 -2.40 -6.60 -6 -9.40 -3.20 -2.80 -5.80 -6.80 -6 -9 0 -2.40 -2.60 -6.40 -6 -9 -3.20 -2.80 -5.80 -7 -6 -9.60 0 -2.40 -1.40 -5 -3.20 -5.80 -5.40 -2 -16.80 -14.40 -16.80 -18.20 0 -2 -2.60 -5.80 -6 -8.40 -3.20 -2.80 -5.80 -7 -6 -9.60 0 -2.40 -1.40 -5 -3 -5.60 -1.60 -0.80 -3 -2.20 -3 -3.60 0 -1.40 -2.60 -4.60 -6 -7.20 -3.20 -2.80 -5.80 -6.40 -6 -8 0 -1.80 -2.60 -5.40 -6 -8 -3.20 -2.80 -5.80 -6.80 -6 -9 0 -2.40 -2.60 -6.40 -6 -9 -3.20 -2.80 -5.80 -6.80 -6 -8.80 0 -2.20 -4 -7.80 -9 -12.60 -5 -4.60 -9 -10.40 -9 -12.60 0 -2.20 -1.60 -4.80 -3.40 -5.40 -5.60 -2.20 -10.60 -8.40 -10.60 -13.40 0 -3 -3.20 -8.20 -8 -13.20 -4.40 -4.60 -8 -9.80 -8 -11.80 0 -1.80 -2.60 -5.60 -6 -8.20 -3.20 -2.80 -5.80 -6.80 -6 -9 0 -2.40 -2.60 -6.40 -6 -9 -3.20 -2.80 -5.80 -7 -6 -9.40 0 -2.60 -2.40 -5.80 -6 -8 -4 -2.20 -6 -5 -6 -8 0 -2.60 -1.40 -5.20 -3 -5.80 -1.60 -0.80 -3 -2.60 -3 -4 0 -1.60 -1.40 -3.40 -3 -4 -1.60 -0.80 -3 -3 -3 -5.20 0 -4.20 -14 -19.60 -17.80 -19.60 -1.20 0 -2.20 -2 -2.20 -4.60 0 -2.60 -2.60 -6.60 -6 -9.40 -3.20 -2.80 -5.80 -7 -6 -9.60 0 -2.40 -1.40 -5 -3 -5.60 -5.60 -2.20 -3.60 -12.20 4 -19.80 6.60 -6.60 8 -7 19.80 -7 9.60 0 13 0.80 14 3 0.60 1.60 3.20 3 6 3 2.60 0 5.20 1.40 6 3 0.60 1.60 3.20 3 6 3 2.60 0 5.20 1.40 6 3 0.60 1.60 3.20 3 6 3 2.60 0 5.20 1.40 6 3 0.60 1.60 3.20 3 6 3 2.60 0 5.20 1.40 6 3 0.60 1.60 2.80 3 5 3 2 0 4.20 1.40 5 3 0.60 1.80 3.60 3 7 3 3.20 0 6.20 1.20 7 3 0.60 1.60 3.20 3 6 3 2.60 0 5.20 1.40 6 3 0.60 1.60 3.20 3 5.60 3 2.60 0.20 6.80 2.80 9.60 6 2.60 3.40 6.80 6 9.20 6 2.40 0 4.80 1.40 5.60 3 0.60 1.60 3.20 3 6 3 2.60 0 5.20 1.40 6 3 0.60 1.60 3.20 3 6 3 2.60 0 5.20 1.40 6 3 0.60 1.60 3.20 3 6 3 2.60 0 5.20 1.40 6 3 0.60 1.80 3.60 3 7 3 4 0 6 1.20 6.80 4 0.60 2.60 2.80 4 6 4 2.80 0 5.40 1.40 6.20 3 0.60 1.60 3.20 3 6 3 2.60 0 5.20 1.40 6 3 0.60 1.60 3.20 3 6 3 2.80 0 5.60 1 6.20 2 0.60 1.20 2.80 2 5 2 2 0 4 1.40 4.80 3 0.60 1.60 3.20 3 6 3 2.60 0 5.20 1.40 6 3 0.60 1.60 3.20 3 6 3 2.60 0 5.20 1.40 6 3 0.60 1.60 3.20 3 6 3 2.60 0 5.20 1.40 6 3 0.60 1.80 3.60 3 7 3 3.20 0 6.20 1.20 7 3 0.60 1.60 3.20 3 6 3 2.60 0 5.20 1.40 6 3 0.60 1.60 3.20 3 6 3 2.60 0 5.20 1.40 6 3 0.60 1.60 3.20 3 6 3 2.60 0 5.20 1.40 6 3 0.60 1.60 3.20 3 6 3 2.60 0 5.20 1.40 6 3 0.60 1.60 3.20 3 5.60 3 2.60 0.20 6.80 2.80 9.60 6 2.60 3.40 6.80 6 9.20 6 2.60 0 4.80 1.60 5.40 4 0.80 2.80 2.80 4 7 4 3.40 0 6.40 1.20 7.20 3 0.60 1.60 2.80 3 5 3 2 0 4.20 1.40 5 3 0.60 1.60 3.20 3 6 3 2.60 0 5.20 1.40 6 3 0.60 1.60 3.20 3 6 3 2.60 0 5.20 1.40 6 3 0.60 1.60 3.20 3 6 3 2.60 0 5.20 1.40 6 3 0.60 1.60 3.20 3 6 3 2.60 0 5.20 1.40 6 3 0.60 1.60 3.20 3 6 3 2.60 0 5.20 1.40 6 3 0.60 1.80 3.60 3 7 3 3.20 0 6.20 1.20 7 3 0.60 1.60 3.20 3 6 3 2.60 0 5.20 1.40 6 3 0.60 1.60 3.20 3 6 3 2.60 0 5.20 1.40 6 3 0.60 2 3.80 3 9 3 5 0 8.20 1 9 3 0.60 1.60 3.20 3 6 3 2.80 0 5.60 1 6.20 2 0.60 1.20 3.40 2 6 2 2.40 0 5 1.40 5.80 3 0.60 1.60 2.80 3 5 3 2 0 4.20 1.40 5 3 0.60 1.80 3.60 3 7 3 4 0 6 1.20 6.80 4 0.60 2.60 2.80 4 6 4 2.80 0 5.40 1.40 6.20 3 0.60 1.60 3.20 3 6 3 2.60 0 5.20 1.40 6 3 0.60 1.60 3.20 3 6 3 2.60 0 5.20 1.40 6 3 0.60 1.60 3.20 3 6 3 2.60 0 5.20 1.40 6 3 0.60 1.60 3.20 3 6 3 2.60 0 5.20 1.40 6 3 0.60 1.60 3.20 3 6 3 2.60 0 5.20 1.40 6 3 0.60 1.60 3.20 3 6 3 2.60 0 5.20 1.40 6 3 0.80 2 4 3 10 3 6 0 9.20 1 10 3 0.60 1.60 3.20 3 6 3 2.60 0 5.20 1.40 6 3 0.60 1.60 2.80 3 5 3 2 0 4.20 1.40 5 3 0.60 1.60 3.20 3 6 3 2.60 0 5.20 1.40 6 3 0.60 1.60 3.20 3 6 3 2.60 0 5.20 1.40 6 3 0.60 1.60 3.20 3 6 3 2.60 0 5.20 1.40 6 3 0.60 1.60 3.20 3 6 3 2.60 0 5.20 1.40 6 3 0.60 1.80 3.60 3 7 3 4 0 6 1.20 6.80 4 0.80 3.20 2.80 4 9 4 5.20 0 8.40 1 9.20 3 0.60 1.60 3.20 3 6 3 2.60 0 5.20 1.40 6 3 0.60 1.60 3.20 3 6 3 2.60 0 5.20 1.40 6 3 0.60 1.60 3.20 3 6 3 2.60 0 5.20 1.40 6 3 0.60 1.60 3.20 3 6 3 2.60 0 5.20 1.40 6 3 0.60 1.60 3.20 3 6 3 2.80 0 5.60 1 6.20 2 0.60 1.20 3.40 2 6 2 2.40 0 5 1.40 5.80 3 0.60 2 3.80 3 9 3 5 0 8.20 1 9 3 0.60 1.60 3.20 3 6 3 2.60 0 5.20 1.40 6 3 0.60 1.60 3.20 3 6 3 2.60 0 5.20 1.40 6 3 0.60 1.60 3.20 3 6 3 2.60 0 5.20 1.40 6 3 0.60 1.60 3.20 3 6 3 2.60 0 5.20 1.40 6 3 0.60 1.60 3.20 3 6 3 2.60 0 5.20 1.40 6 3 0.60 1.80 3.60 3 7 3 3.20 0 6.20 1.20 7 3 0.60 2 3.80 3 9 3 6 0 8 0.80 8.80 4 0.60 2.60 2.80 4 6 4 2.80 0 5.40 1.40 6.20 3 0.80 2 4 3 10 3 7 0 9.40 -1 12 -5 1.80 -2.60 3.20 -6.80 3.20 -9 0 -2.20 4 -8 9 -12.60 5 -4.80 9 -10.20 9 -12 0 -3.80 5.60 -10 10.60 -12 1.80 -0.60 3.40 -3.40 3.40 -6 0 -3 2 -5.80 6 -8 3.60 -2.20 6 -5.40 6 -8 0.20 -2.40 2.80 -6.60 6 -9.40 3.40 -2.60 6 -6.80 6 -9.20 0 -2.40 1.40 -4.80 3 -5.60 1.60 -0.60 3 -2.40 3 -4 0 -1.40 1.40 -3.20 3 -4 1.60 -0.60 3 -3.20 3 -5.60 0.20 -2.60 2.80 -6.80 6 -9.60 3.40 -2.60 6 -6.60 6 -9 0.20 -2.20 2.80 -6.20 6 -9 3.40 -2.60 6 -6.60 6 -9 0.20 -2.20 2.80 -6.20 6 -9 3.40 -2.60 6 -6.40 6 -8.40 0 -3.80 11.40 -16.20 16.80 -18.20 1.80 -0.80 3.20 -3.60 3.20 -6.80 0.20 -3.60 2.20 -7.20 6 -10.60 3.40 -2.60 6 -6 6 -7.40 0 -1.20 2.20 -4.80 5 -7.80 2.80 -3 5 -7.20 5 -9.60 0.20 -2.40 2.80 -6.40 6 -9.20 3.40 -2.60 6 -6.60 6 -9 0.20 -2.20 2.80 -6.20 6 -9 3.40 -2.60 6 -6.60 6 -9 0.20 -2.20 2.80 -6.20 6 -9 3.80 -3 6 -6.80 6 -10 0.20 -3 2.40 -6.80 6 -10 3.40 -2.60 6 -6.60 6 -9 0.20 -2.20 2.80 -6.20 6 -9 3.40 -2.80 6 -6.80 6 -9.40 0 -2.60 1 -4.60 2.20 -4.60 3.60 0 17.80 -15.20 17.80 -19.20 0.20 -2.20 2.80 -6 6 -8.80 3.40 -2.60 6 -6.20 6 -8 0.20 -1.60 2.80 -5.20 6 -8 3.80 -3 6 -6.80 6 -10 0.20 -3 2.40 -6.80 6 -10 3.40 -2.60 6 -6.60 6 -9 0.20 -2.20 2.80 -6.20 6 -9 3.40 -2.60 6 -6.60 6 -9 0.20 -2.20 2.80 -6.20 6 -9 3.40 -2.60 6 -6.40 6 -8.40 0 -1.80 2.20 -5.80 5 -8.80 2.80 -3 5 -7.60 5 -10 0 -2.60 1 -4.80 2.20 -4.80 4 0 11.80 -8.80 11.80 -13.60 0 -2.60 3.60 -7.80 9 -13 5 -4.80 9 -10.40 9 -12.60 0.20 -2 2.80 -6 6 -8.80 3.40 -2.60 6 -6.20 6 -8 0.20 -1.60 2.80 -5.20 6 -8 3.40 -2.60 6 -6.60 6 -9 0.20 -2.20 2.80 -6.20 6 -9 3.40 -2.60 6 -6.80 6 -9.20 0 -2.40 1.40 -4.80 3 -5.60 1.60 -0.60 3 -2.40 3 -4 0 -1.40 1.40 -3.20 3 -4 1.60 -0.60 3 -3.20 3 -5.60 0.20 -2.60 2.80 -6.80 6 -9.60 3.40 -2.80 6 -6.80 6 -9.40 0 -2.60 1 -4.60 2.20 -4.60 3.80 0 11.80 -8.80 11.80 -13 0.20 -2.20 2.80 -6.20 6 -9 3.40 -2.60 6 -6.80 6 -9.20 0 -2.40 1.40 -4.80 3 -5.60 1.60 -0.60 3 -3.20 3 -6 0 -2.60 1.40 -5.20 3 -6 1.60 -0.60 3 -3.60 3 -6.80 0 -4 1.60 -6.40 6 -9 4 -2.40 6 -5.20 6 -8.40 0 -2.40 2.20 -6.60 5 -9.20 2.60 -2.60 5 -6.60 5 -8.80 0.20 -2.20 2.80 -6.20 6 -9 3.40 -2.60 6 -6.60 6 -9 0.20 -2.20 2.80 -6.20 6 -9 3.40 -2.60 6 -6.40 6 -8.40 0 -3.40 6.60 -11.60 9.20 -11.60 3.40 0 10.80 -9.60 10.80 -14 0.20 -3 2.60 -7 6 -10 3.40 -2.60 6 -6.60 6 -9 0.20 -2.20 2.80 -6.20 6 -9 3.40 -2.60 6 -6.60 6 -9 0.20 -2.20 2.80 -6.20 6 -9 3.40 -2.60 6 -6.60 6 -9 0 -2.40 2.40 -5.60 6 -7.60 3.60 -2.20 6 -5.40 6 -8 0.20 -2.40 2.80 -6.60 6 -9.40 3.80 -3 6 -6.80 6 -10 0.20 -3 2.40 -6.80 6 -10 3.40 -2.60 6 -6.40 6 -8.40 0 -4 5.40 -10.20 10.60 -12.20 1.80 -0.60 3.40 -3 3.40 -5.20 0 -2.20 3.60 -7.60 8 -12.20 4.40 -4.60 8 -10.20 8 -12.60 0.20 -2.40 2.80 -6.60 6 -9.40 3.40 -2.60 6 -6.80 6 -9.20 0 -2.40 1.40 -4.80 3 -5.60 1.60 -0.60 3 -2.40 3 -4 0 -1.40 1.40 -3.20 3 -4 1.60 -0.60 3 -3.20 3 -5.60 0.20 -2.60 2.80 -6.80 6 -9.60 3.40 -2.60 6 -6.20 6 -8 0.20 -1.60 2.80 -5.20 6 -8 3.40 -2.60 6 -6.60 6 -9 0.20 -2.20 2.80 -6.20 6 -9 3.40 -2.60 6 -6.40 6 -8.40 0 -4 5.40 -10.20 10.60 -12.20 2 -0.80 3.40 -3.40 3.40 -6.20 0 -2.60 1.40 -5.20 3 -6 1.60 -0.60 3 -2.20 3 -3.60 0.20 -1.40 2.80 -4.80 6 -7.60 3.40 -2.60 6 -6.60 6 -9 0.20 -2.20 2.80 -6.20 6 -9 3.40 -2.60 6 -6.60 6 -9 0.20 -2.20 2.80 -6.20 6 -9 3.40 -2.60 6 -6.60 6 -9 0.20 -2.20 2.80 -6.20 6 -9 3.40 -2.60 6 -6.60 6 -9 0.20 -2.20 2.80 -6.20 6 -9 3.40 -2.60 6 -6 6 -7.40 0 -3.60 4.40 -11.20 7.60 -13.20 1.20 -0.80 2.40 -3.40 2.40 -5.40 0 -4.40 5.20 -10.60 10.60 -12.60 1.80 -0.60 3.40 -3.20 3.40 -5.40 0 -2.20 4 -8 9 -12.60 5 -4.80 9 -10.40 9 -12.60 0.20 -2 2.80 -6 6 -8.80 3.40 -2.60 6 -6.60 6 -9 0.20 -2.20 2.80 -6.20 6 -9 3.80 -3 6 -6.80 6 -10 0.20 -3 2.40 -6.80 6 -10 3.40 -2.60 6 -6.60 6 -9 0.20 -2.20 2.80 -6.20 6 -9 3.40 -2.60 6 -6.60 6 -9 0.20 -2.20 2.80 -6.20 6 -9 3.40 -2.60 6 -6 6 -7.40 0 -3.20 6 -9.40 10.60 -11.20 1.80 -0.60 3.40 -3.40 3.40 -5.80 0.20 -2.60 2.80 -6.80 6 -9.60 3.80 -3 6 -6.80 6 -10 0.20 -3 2.40 -6.80 6 -10 3.40 -2.60 6 -6.40 6 -8.20 0 -2 3.60 -7.20 8 -11.80 4.40 -4.60 8 -10.20 8 -12.60 0.20 -2.40 2.80 -6.60 6 -9.40 3.40 -2.60 6 -6.60 6 -9 0.20 -2.20 2.80 -6.20 6 -9 3.40 -2.60 6 -6.80 6 -9.20 0 -2.40 1.40 -4.80 3 -5.60 1.60 -0.60 3 -2.40 3 -4 0 -1.40 1.40 -3.20 3 -4 1.60 -0.60 3 -3 3 -5.20 0 -4.40 5.20 -10.60 10.60 -12.60 1.80 -0.60 3.40 -2.80 3.40 -4.80 0.20 -2 2.80 -5.80 6 -8.60 3.40 -2.60 6 -6.60 6 -9 0.20 -2.20 2.80 -6.20 6 -9 3.40 -2.60 6 -6.40 6 -8.40 0 -2 4 -7.60 9 -12.20 5 -4.80 9 -10.60 9 -12.80 0 -2.40 1.40 -4.60 3 -5.40 1.60 -0.60 3 -2.40 3 -4 0 -1.40 1.40 -3.20 3 -4 1.60 -0.60 3 -3.20 3 -5.60 0.20 -2.60 2.80 -6.80 6 -9.60 3.40 -2.60 6 -6.60 6 -9 0.20 -2.20 2.80 -6.20 6 -9 3.40 -2.60 6 -6.40 6 -8.40 0 -4 5.40 -10.20 10.60 -12.20 2 -0.80 3.40 -3.40 3.40 -6.20 0 -3.20 1.80 -6.40 5 -8.40 3 -1.80 5 -5.20 5 -7.80 0 -2.60 1.40 -5 3 -5.80 1.60 -0.60 3 -2.40 3 -4 0 -1.40 1.40 -3.20 3 -4 1.60 -0.60 3 -3.20 3 -5.60 0.20 -2.60 2.80 -6.80 6 -9.60 3.40 -2.60 6 -6.40 6 -8.40 0 -2 4 -7.60 9 -12.20 5 -4.80 9 -10.40 9 -12.60 0.20 -2 2.80 -6 6 -8.80 3.40 -2.60 6 -6.60 6 -9 0.20 -2.20 2.80 -6.20 6 -9 3.40 -2.80 6 -6.80 6 -9.40 0 -4.80 5 -11 10.60 -13.20 1.80 -0.60 3.40 -3.40 3.40 -5.80 0.20 -2.60 2.80 -6.80 6 -9.60 3.40 -2.60 6 -6.20 6 -8 0.20 -1.60 2.80 -5.20 6 -8 3.40 -2.60 6 -6.60 6 -9 0.20 -2.20 2.80 -6.20 6 -9 3.40 -2.60 6 -6.60 6 -9 0.20 -2.20 2.80 -6.20 6 -9 3.80 -3 6 -6.80 6 -10 0.20 -3 2.40 -6.80 6 -10 3.40 -2.60 6 -6.80 6 -9.20 0 -2.40 3.60 -7.80 8 -12.40 4.40 -4.40 8 -9.40 8 -11.20 0 -3.60 5.60 -9.80 10.60 -11.80 1.80 -0.60 3.40 -3.40 3.40 -5.80 0.20 -2.60 2.80 -6.80 6 -9.60 3.40 -2.60 6 -6.80 6 -9.20 0 -2.40 1.40 -4.80 3 -5.60 1.60 -0.60 3 -2.40 3 -4 0 -1.40 1.40 -3.20 3 -4 1.60 -0.60 3 -2.60 3 -4.60 0.20 -2 2.80 -5.80 6 -8.60 3.40 -2.60 6 -6.60 6 -9 0.20 -2.20 2.80 -6.20 6 -9 3.40 -2.60 6 -6.60 6 -9 0.20 -2.20 2.80 -6.20 6 -9 3.40 -2.60 6 -6.60 6 -9 0.20 -2.20 2.80 -6.20 6 -9 3.40 -2.60 6 -6.60 6 -9 0.20 -2.20 2.80 -6.20 6 -9 3.40 -2.60 6 -5.80 6 -7.20 0 -1.20 1.80 -2.80 4 -3.40 2.60 -0.60 4 -2.80 4 -5.80 0.20 -2.60 2.80 -6.60 6 -9.60 3.40 -2.60 6 -6.60 6 -9 0.20 -2.20 2.80 -6.20 6 -9 3.40 -2.60 6 -6.80 6 -9.20 0 -2.40 2.20 -6.40 5 -9 2.60 -2.60 5 -6.20 5 -7.80 0.20 -1.60 2.80 -5.20 6 -8 3.40 -2.60 6 -6.80 6 -9.20 0 -2.40 1.40 -4.80 3 -5.60 1.60 -0.60 3 -2.40 3 -4 0 -1.40 1.40 -3.20 3 -4 1.60 -0.60 3 -3.20 3 -5.60 0.20 -2.60 2.80 -6.80 6 -9.60 3.40 -2.60 6 -6.60 6 -9 0.20 -2.20 2.80 -6.20 6 -9 3.40 -2.80 6 -6.80 6 -9.40 0 -2.60 1 -4.60 2.20 -4.60 3.60 0 17.80 -15.20 17.80 -19.20 0.20 -2.20 2.80 -6 6 -8.80 3.80 -3 6 -6.80 6 -10 0.20 -3 2.40 -6.80 6 -10 3.40 -2.60 6 -6.60 6 -9 0.20 -2.20 2.80 -6.20 6 -9 3.40 -2.60 6 -6.20 6 -8 0.20 -1.60 2.80 -5.20 6 -8 3.40 -2.60 6 -6.60 6 -9 0.20 -2.20 2.80 -6.20 6 -9 3.40 -2.60 6 -6.60 6 -9 0.20 -2.20 2.80 -6.20 6 -9 3.80 -3 6 -6.80 6 -10 0.20 -5.80 3.40 -10.60 8.60 -12.60 1.80 -0.60 3.40 -3.20 3.40 -5.40 0 -2.20 4 -8 9 -12.60 5 -4.80 9 -10.40 9 -12.60 0.20 -2 2.80 -6 6 -8.80 3.40 -2.60 6 -6.60 6 -9 0.20 -2.20 2.80 -6.20 6 -9 3.40 -2.60 6 -6.60 6 -9 0 -2.40 2.40 -5.60 6 -7.60 4.20 -2.60 6 -5.20 6 -9 0.20 -3.40 2.20 -7.20 6 -10.40 3.40 -2.60 6 -6.60 6 -9 0.20 -2.20 2.80 -6.20 6 -9 3.40 -2.80 6 -6.80 6 -9.40 0 -2.60 1.20 -4.60 2.60 -4.60 3.60 0 11.40 -9 11.40 -13.20 0.20 -2.20 2.80 -6 6 -8.80 3.40 -2.60 6 -6.60 6 -9 0.20 -2.20 2.80 -6.20 6 -9 3.40 -2.60 6 -5.80 6 -7.20 0 -1.40 1.40 -2.80 3 -3.60 1.60 -0.60 3 -3.20 3 -5.60 0.20 -2.60 2.80 -6.80 6 -9.60 3.40 -2.60 6 -6.80 6 -9.20 0 -2.40 2.20 -6.40 5 -9 2.60 -2.60 5 -6.60 5 -8.80 0 -2.40 2.60 -5.60 6.20 -7.80 3.60 -2.20 5.80 -4.80 5.40 -6.80 -0.60 -3 -6.60 -3.40 -59.60 -4 -49.60 -0.40 -59.20 -1 -60.60 -3.40 -2 -3.80 -7.20 -3.80 -8.60 0 -1 2.20 -4.40 3 -13.80 3 -9.40 0 -12.80 -0.80 -13.80 -3 -0.80 -2.40 -4.60 -3 -16.20 -3 -11.60 0 -15.40 0.60 -16.20 3 -1 2.60 -21.40 3 -166 3 -144.80 0 -165 0.40 -166 3 -1 2.60 -21.80 3 -169.80 3 -110.40 0 -169.20 0.60 -170 2 -0.80 1.40 -58.80 2 -167.20 2 -145.60 0 -166 0.40 -167 3 -1 2.60 -21.20 3 -165 3 -143 0 -163.80 0.40 -165.20 3 -1.60 2.60 -18 3 -122.60 3.40 l-121 0.60 -0.60 12.60 c-0.40 9.80 0 12.80 2.60 13.60 2.20 1 3 4.20 3 13 0 8.80 0.80 12.20 3 13 2 0.80 3 4 3 9 0 5.20 1 8.40 3 9 2.20 1 3 4.20 3 12 0 7.80 0.80 11.20 3 12 2.20 1 3 4.20 3 12 0 7.80 0.80 11.20 3 12 2 0.80 3 4 3 10 0 6 1 9.20 3 10 2.20 0.80 3 4.20 3 11 0 7 0.80 10.20 3 11 2.20 1 3 4.20 3 12 0 7.80 0.80 11.20 3 12 2 0.80 3 4 3 9 0 5.20 1 8.40 3 9 2.20 1 3 4.40 3 13.20 0 10.20 0.60 12.20 4 13 3.40 1 4 2.80 4 11.80 0 7.80 0.80 11.20 3 12 2.20 1 3 4.20 3 12 0 7.80 0.80 11.20 3 12 1.80 0.80 3 3.80 3 8 0 4.40 1.20 7.40 3 8 2.20 1 3 4.40 3 13 0 8.80 0.80 12.20 3 13 2.20 1 3 4.20 3 12 0 7.80 0.80 11.20 3 12 2 0.80 3 4 3 9 0 5.20 1 8.40 3 9 2.20 1 3 4.20 3 12 0 7.80 0.80 11.20 3 12 2.20 1 3 4.40 3 13 0 8.80 0.80 12.20 3 13 2 0.80 3 4 3 9 0 5.20 1 8.40 3 9 2 0.80 3 4.20 3 10.80 0 5.40 1 10.40 2 11 1.20 0.60 2 6.20 2 12.20 0 7.80 0.80 11.20 3 12 2 0.80 3 4 3 9 0 5.20 1 8.40 3 9 2.20 1 3 4.40 3 13 0 8.80 0.80 12.20 3 13 2.20 1 3 4.20 3 12 0 7.80 0.80 11.20 3 12 2.20 1 3 4.20 3 12.20 0 9.20 0.60 11.20 4 12 3 0.80 4 2.80 4 7.80 0 4.40 1.20 7.40 3 8 2.20 1 3 4.40 3 13 0 8.80 0.80 12.20 3 13 2.20 1 3 4.20 3 12 0 7.80 0.80 11.20 3 12 2 0.80 3 4 3 9 0 5.20 1 8.40 3 9 2.20 1 3 4.20 3 12 0 7.80 0.80 11.20 3 12 2.20 1 3 4.40 3 13 0 8.80 0.80 12.20 3 13 2 0.80 3 4 3 9 0 5.20 1 8.40 3 9 2.20 0.80 3 4.20 3 11 0 7 0.80 10.20 3 11 2.20 1 3 4.20 3 12 0 7.80 0.80 11.20 3 12 2 0.80 3 4 3 10 0 6 1 9.20 3 10 2.20 1 3 4.20 3 12 0 7.80 0.80 11.20 3 12 2.20 1 3 4.20 3 12 0 7.80 0.80 11.20 3 12 2.20 1 3 4.20 3 12 0 7.80 0.80 11.20 3 12 2 0.80 3 4 3 10 0 6 1 9.20 3 10 2.20 0.80 3 4.20 3 11.20 0 8.20 0.60 10.20 4 11 3.40 1 4 2.80 4 11.80 0 7.80 0.80 11.20 3 12 2 0.80 3 4 3 9 0 5.20 1 8.40 3 9 2.20 1 3 4.40 3 13 0 8.80 0.80 12.20 3 13 2.20 1 3 4.20 3 11.80 0 6 1 11.40 2 12 1.20 0.60 2 4.80 2 9.20 0 5.20 1 8.40 3 9 2.20 0.80 3 4.20 3 11 0 7 0.80 10.20 3 11 2.20 1 3 4.40 3 13 0 8.80 0.80 12.20 3 13 2 0.80 3 4 3 9 0 5.20 1 8.40 3 9 2.20 1 3 4.40 3 13 0 10.60 -0.60 12.20 -7 18.80 -10.40 10.40 -18.40 9.80 -29.60 -2 -4.80 -5 -9.20 -9 -10 -9 -2.80 0 -15.40 -14.40 -15.40 -17.40 0 -1.80 -5.40 -8.40 -12 -15 -7.40 -7.20 -12 -13.20 -12 -16 0 -2.40 -3.80 -7.80 -9 -13 -5 -4.60 -9 -9.60 -9 -10.80 0 -1.40 -5.40 -7.60 -12 -14.20 -6.60 -6.40 -12 -13 -12 -14.80 0 -3.20 -7.80 -12.80 -10.40 -12.80 -3 0 -15.60 -14.40 -15.60 -17.60 0 -2 -2.60 -5.80 -6 -8.40 -3.20 -2.80 -5.80 -6 -6 -7.20 0 -1.20 -2.20 -4.60 -5 -7.60 -2.80 -3 -5 -6.80 -5 -8.60 0 -1.80 -5.40 -8.40 -12 -15 -6.60 -6.40 -12 -13.20 -12 -15 0 -1.80 -4 -7.20 -9 -12 -5 -4.60 -9 -9.60 -9 -10.80 0 -2.60 -8.20 -11.80 -10.40 -11.80 -2.40 0 -9.60 -7.80 -9.60 -10 0 -1.20 -1.40 -2.60 -3 -3.20 -1.60 -0.80 -3 -3 -3 -5.40 0 -2.20 -5 -9 -12 -15.80 -6.60 -6.40 -12 -13.20 -12 -15 0 -1.80 -5.40 -8.40 -12 -15 -6.60 -6.40 -12 -13.20 -12 -15.20 0 -2 -2.60 -5.80 -6 -8.40 -3.20 -2.80 -5.80 -6.20 -6 -7.60 0 -1.40 -1.40 -3 -3 -3.60 -1.60 -0.80 -3 -3 -3 -5 0 -4.40 -5.60 -13.80 -8.20 -13.80 -2.40 0 -15.80 -13.80 -15.80 -16.40 0 -1.20 -5.40 -7.40 -12 -14 -6.60 -6.40 -12 -13.20 -12 -15 0 -1.80 -5.40 -8.40 -12 -15 -7.40 -7 -12 -13.40 -12 -16 0 -2.60 -4.60 -8.80 -12 -16 -6.80 -6.60 -12 -13.40 -12 -15.60 0 -2.40 -1.40 -4.60 -3.20 -5.40 -5.20 -2 -16.80 -14.40 -16.80 -18 0 -1.80 -5.40 -8.40 -12 -15 -8.20 -7.80 -12 -13.20 -12 -16.40 0 -3.40 -2 -6.20 -5.80 -8.40 -3 -1.80 -7.20 -6 -9 -9 -2 -3.20 -4.20 -5.80 -5.40 -5.80 -1 0 -1.80 -2 -1.80 -4.40 0 -2.60 -4.60 -8.80 -12 -16 -6.80 -6.60 -12 -13.40 -12 -15.60 0 -2.40 -1.40 -4.60 -3.20 -5.40 -5.60 -2.20 -16.80 -14.60 -16.80 -18.80 0 -2.20 -1.40 -4.40 -3 -5 -1.60 -0.80 -3 -2.20 -3 -3.40 0 -1.20 -4 -6 -9 -10.80 -5 -4.60 -9 -10 -9 -11.80 0 -2 -5.40 -8.60 -12 -15.20 -6.60 -6.40 -12 -13.40 -12 -15.40 0 -2 -2.20 -5.20 -5 -7 -8.80 -5.80 -19 -17.20 -19 -21.40 0 -2.40 -1.60 -4.60 -4 -5.20 -2.20 -0.60 -4 -2.20 -4 -3.40 0 -1.40 -2.60 -4.60 -6 -7.20 -3.20 -2.80 -5.80 -7 -6 -9.40 0 -2.60 -4.60 -9.20 -11 -15.60 -6 -6.20 -11 -12.80 -11 -14.40 0 -1.80 -5.40 -8.40 -12 -15 -6.60 -6.40 -12 -13.20 -12 -15.20 0 -2 -2.60 -5.80 -6 -8.40 -3.20 -2.80 -5.80 -6 -6 -7 0 -1.20 -2.60 -4.40 -6 -7 -3.20 -2.80 -5.80 -7 -6 -9.60 0 -2.40 -1.60 -5.20 -3.40 -5.80 -1.80 -0.80 -4.80 -2.80 -6.60 -4.40 -1.80 -1.80 -6.20 -5.40 -9.60 -8.20 -3.40 -2.80 -6.20 -6.80 -6.40 -8.80 0 -2.20 -4 -7.80 -9 -12.60 -5 -4.60 -9 -10 -9 -12 0 -1.80 -3.80 -7 -8.60 -11.60 -4.80 -4.60 -9.20 -9.80 -10 -11.60 -0.60 -1.80 -2.20 -3.40 -3.40 -3.40 -1 0 -2 -1.80 -2 -4.20 0 -2.40 -3.40 -7.80 -7.40 -12.20 -13.80 -14.40 -14.60 -15.60 -14.60 -19.60 0 -2.20 -1.40 -4.60 -3.20 -5.40 -5.20 -2 -16.80 -14.40 -16.80 -18 0 -3.40 -19 -22.60 -22.20 -22.60 -1 0 -1.80 -2.40 -1.80 -5.40 0 -3.80 -3.20 -8.40 -12 -17 -6.60 -6.40 -12 -13.20 -12 -15 0 -1.80 -5.40 -8.40 -12 -15 -6.80 -6.60 -12 -13.40 -12 -15.60 0 -2.40 -1.40 -4.60 -3.20 -5.40 -6 -2.20 -22.80 -20.80 -22.80 -25 0 -2.40 -3.80 -8 -9 -13 -5 -4.60 -9 -10.40 -9 -12.40 0 -2.20 -5 -9 -11 -15.20 -6 -6.20 -11 -12.40 -11 -13.40 0 -1.20 -5.40 -7.40 -12 -14 -8.40 -8.20 -12 -13.20 -12 -16.60 0 -2.80 -1.40 -5.60 -3.20 -6.40 -5.20 -2 -22.80 -20.60 -22.80 -24 0 -1.80 -4 -7.20 -9 -12 -5 -4.60 -9 -10 -9 -11.80 0 -2 -5.40 -8.60 -12 -15.20 -6.80 -6.60 -12 -13.40 -12 -15.60 0 -2.40 -1.40 -4.60 -3 -5.20 -1.60 -0.80 -3 -2.20 -3 -3.40 0 -1.20 -4 -6 -9 -10.80 -5 -4.60 -9 -10 -9 -11.60 0 -1.80 -1.60 -3.80 -3.40 -4.40 -2 -0.80 -5.80 -4 -8.60 -7.20 -2.80 -3.40 -6.60 -7.60 -8.40 -9.60 -2 -2.20 -3.60 -5.20 -3.60 -7.20 0 -1.80 -5.40 -8.40 -12 -15 -6.80 -6.60 -12 -13.40 -12 -15.60 0 -2.40 -1.40 -4.60 -3 -5.20 -1.60 -0.80 -3 -2.20 -3 -3.60 0 -1.40 -2.60 -4.60 -6 -7.20 -3.20 -2.80 -5.80 -6.80 -6 -8.80 0 -2 -5.40 -9 -12 -15.60 -6.80 -6.60 -12 -13.40 -12 -15.60 0 -2.40 -1.40 -4.60 -3.20 -5.40 -4.60 -1.80 -22.80 -20.40 -22.80 -23.20 0 -1.40 -2.60 -4.80 -6 -7.40 -3.20 -2.80 -5.80 -6 -6 -7 0 -1.20 -2.60 -4.40 -6 -7 -3.20 -2.80 -5.80 -6.80 -6 -8.80 0 -2.20 -4 -7.80 -9 -12.60 -5 -4.60 -9 -10.40 -9 -12.40 0 -2.20 -5 -9 -11 -15.20 -6 -6.20 -11 -13.20 -11 -15.20 0 -2.20 -1.40 -4.40 -3.20 -5.20 -4.20 -1.60 -15.80 -13.20 -17.40 -17.40 -0.80 -1.80 -2.20 -3.20 -3.40 -3.20 -1 0 -2 -2 -2 -4.40 0 -2.60 -4.60 -8.80 -12 -16 -6.60 -6.40 -12 -12.60 -12 -14 0 -1.20 -4 -6.20 -9 -11 -5 -4.60 -9 -10.20 -9 -12.20 0 -2 -2.60 -5.80 -6 -8.40 -9.40 -8 -8.20 -15.60 4 -28 l10.20 -10 219 0 c192.80 0 219 -0.40 220 -3 1 -2.60 31.60 -3 257 -3 225.60 0 256 -0.40 257 -3 1 -2.60 31.20 -3 254 -3 223 0 253 -0.40 254 -3 1 -2.60 31.20 -3 255 -3 223.80 0 254 -0.40 255 -3 1 -2.60 31 -3 253 -3 222 0 252 -0.40 253 -3 1 -2.60 31.20 -3 255 -3 223.80 0 254 -0.40 255 -3 1 -2.60 31 -3 253 -3 222 0 252 -0.40 253 -3 1 -2.60 17 -3 126 -3 l124.60 0 7.20 7 c5.80 6 7 8.60 7 15.80 0 6 -1 9.20 -3 10 -1.60 0.60 -3 3.20 -3 5.60 -0.20 2.60 -2.80 6.80 -6 9.60 -3.80 3 -6 6.80 -6 10 -0.20 3 -2.40 6.80 -6 10 -3.40 2.60 -6 6.40 -6 8.40 0 2 -4 7.60 -9 12.20 -5 4.80 -9 10.40 -9 12.60 0 2.20 -2.60 5.40 -6 7.40 -3.40 2 -6 5.40 -6 7.60 0 4.20 -5.40 10.40 -10.60 12.40 -1.80 0.60 -3.40 3.40 -3.40 5.80 -0.20 2.60 -2.80 6.80 -6 9.60 -3.40 2.60 -6 5.80 -6 7.20 0 1.40 -1.40 2.80 -3 3.60 -1.60 0.60 -3 3.20 -3 5.60 -0.20 2.60 -2.80 6.80 -6 9.60 -3.40 2.60 -6 6.60 -6 9 -0.20 2.20 -2.80 6.20 -6 9 -3.40 2.60 -6 6.40 -6 8.20 0 2 -3.60 7.20 -8 11.80 -4.40 4.60 -8 10.20 -8 12.60 -0.20 2.40 -2.80 6.60 -6 9.40 -3.80 3 -6 6.80 -6 10 -0.20 3 -2.40 6.80 -6 10 -3.40 2.60 -6 6.40 -6 8.40 0 2 -1 3.60 -2.20 3.60 -3.60 0 -17.80 15.20 -17.80 19.20 -0.20 2.20 -2.80 6 -6 8.80 -3.40 2.60 -6 6.60 -6 9 -0.20 2.20 -2.80 6.20 -6 9 -3.40 2.60 -6 6.60 -6 9 -0.20 2.20 -2.80 6.20 -6 9 -3.40 2.60 -6 5.80 -6 7.20 0 1.40 -1.40 2.80 -3 3.60 -1.60 0.60 -3 3.20 -3 5.60 -0.20 2.60 -2.80 6.80 -6 9.60 -3.40 2.60 -6 6.60 -6 9 -0.20 2.20 -2.80 6.20 -6 9 -3.40 2.60 -6 6.40 -6 8.40 0 3.60 -6.60 11.60 -9.40 11.60 -2.60 0 -10.60 9.40 -10.60 12.20 -0.20 1.60 -2.80 5 -6 7.80 -3.40 2.60 -6 6.80 -6 9.40 0 2.40 -2.20 6.80 -5 9.80 -2.80 3 -5 7.20 -5 9.60 -0.20 2.40 -2.80 6.40 -6 9.20 -3.40 2.60 -6 6.40 -6 8.40 0 2 -4 7.60 -9 12.20 -5 4.80 -9 10.40 -9 12.60 -0.20 2 -2.80 6 -6 8.80 -3.40 2.60 -6 6.60 -6 9 -0.20 2.20 -2.80 6.20 -6 9 -4 3.20 -6 6.60 -6 10.40 0 3 -1 5.60 -2.20 5.60 -3.80 0 -17.80 15.20 -17.80 19.40 0 2 -2.60 5.40 -6 7.20 -3.60 2.20 -6 5.40 -6 8 -0.20 2.40 -2.80 6.60 -6 9.40 -3.40 2.60 -6 6.40 -6 8.40 0 2 -4 7.60 -9 12.20 -5.60 5.60 -9 10.40 -9 13.60 -0.20 2.80 -2.60 6.80 -6 9.80 -3.40 2.60 -6 6.60 -6 9 -0.20 2.20 -2.80 6.20 -6 9 -3.40 2.60 -6 6.80 -6 9.20 0 2.40 -2.20 6.40 -5 9 -2.60 2.60 -5 6.80 -5 9.40 0 2.40 -1 4.40 -2.20 4.40 -3.60 0 -17.80 15.20 -17.80 19.20 -0.20 2.20 -2.80 6 -6 8.80 -3.40 2.60 -6 6.40 -6 8.40 0 2 -4 7.60 -9 12.20 -5 4.80 -9 10.40 -9 12.60 -0.20 2 -2.80 6 -6 8.80 -3.40 2.60 -6 6.60 -6 9 -0.20 2.20 -2.80 6.20 -6 9 -3.40 2.60 -6 6.60 -6 9 -0.20 2.20 -2.80 6.20 -6 9 -3.40 2.80 -6 6.80 -6 9.40 0 2.80 -1.20 4.60 -3 4.60 -1.80 0 -3.80 1.60 -4.40 3.40 -0.80 2 -4 5.80 -7 8.60 -3 2.60 -5.60 6.80 -5.60 9 -0.20 2.20 -2.80 6.20 -6 9 -3.40 2.60 -6 6.60 -6 9 -0.20 2.20 -2.80 6.20 -6 9 -3.40 2.80 -6 6.80 -6 9.40 0 2.60 -0.80 4.60 -1.80 4.60 -3.60 0 -14.20 12.40 -14.20 16.60 -0.20 2.40 -2.80 6.60 -6 9.40 -3.80 3 -6 6.80 -6 10 -0.20 3 -2.40 6.80 -6 10 -3.40 2.60 -6 6.40 -6 8.40 0 3.80 -11.40 16.20 -16.80 18.20 -1.80 0.80 -3.20 3.40 -3.20 5.80 -0.20 2.60 -2.80 6.80 -6 9.60 -3.40 2.60 -6 6.60 -6 9 -0.20 2.20 -2.80 6.20 -6 9 -3.40 2.60 -6 6.80 -6 9.20 0 2.40 -1.40 4.80 -3 5.60 -1.60 0.60 -3 2.20 -3 3.60 -0.20 1.40 -2.80 4.80 -6 7.60 -3.40 2.60 -6 6.60 -6 9 -0.20 2.20 -2.80 6.20 -6 9 -3.40 2.60 -6 6.20 -6 8 -0.20 1.60 -2.80 5.20 -6 8 -3.40 2.60 -6 6.40 -6 8.40 0 3.80 -11.40 16.20 -16.80 18.20 -1.80 0.80 -3.20 3.40 -3.20 5.80 -0.20 2.60 -2.80 6.80 -6 9.60 -4 3.20 -6 6.60 -6 10.20 0 3.20 -2 7.40 -5 10 -2.60 2.60 -5 6.60 -5 8.80 -0.20 2.20 -2.80 6.20 -6 9 -3.40 2.60 -6 6.40 -6 8.40 0 2 -4 7.60 -9 12.20 -5 4.80 -9 10.40 -9 12.60 -0.20 2 -2.80 6 -6 8.80 -3.40 2.60 -6 6.20 -6 8 -0.20 1.60 -2.80 5.20 -6 8 -3.40 2.80 -6 6.80 -6 9.40 0 4.40 -6.20 12.60 -9.40 12.60 -3 0.20 -10.60 9.60 -10.60 13.20 -0.20 2.20 -2.80 6 -6 8.80 -3.40 2.60 -6 6.60 -6 9 -0.20 2.20 -2.80 6.20 -6 9 -3.40 2.60 -6 6.40 -6 8.40 0 2 -4 7.60 -9 12.20 -5.60 5.60 -9 10.40 -9 13.60 -0.20 2.80 -2.60 6.80 -6 9.80 -3.40 2.60 -6 6.60 -6 9 -0.20 2.20 -2.80 6.20 -6 9 -3.40 2.60 -6 6.60 -6 9 -0.20 5 -3.40 9.20 -10.40 13.80 -3.60 2.40 -5.60 5.40 -5.60 8.40 0 2.60 -1.20 4.80 -2.40 4.80 -3.80 0 -11.60 9 -11.60 13.20 -0.20 2.20 -2.80 6 -6 8.80 -3.60 2.80 -6 6.80 -6 9.40 0 3 -3.40 8 -9 13.20 -5 4.80 -9 10.40 -9 12.60 -0.20 2 -2.80 6 -6 8.80 -3.40 2.60 -6 6.60 -6 9 -0.20 2.20 -2.80 6.20 -6 9 -3.40 2.60 -6 6.40 -6 8.40 0 2 -4 7.60 -9 12.20 -6.20 6 -9 10.40 -9 14 0 3 -1.20 5.40 -2.40 5.40 -3.40 0 -11.60 8.80 -11.60 12.20 -0.20 1.60 -2.80 5 -6 7.80 -3.40 2.60 -6 6.60 -6 9 -0.20 2.20 -2.80 6.20 -6 9 -3.40 2.60 -6 6.40 -6 8.40 0 2 -1.60 5.40 -3.40 7.40 -11 11.80 -12.60 14.20 -12.60 17.80 0 2.20 -1.40 4.40 -3 5.20 -1.60 0.60 -3 2.40 -3 4 0 1.40 -1.40 3.20 -3 4 -1.60 0.60 -3 3 -3 5.20 0 2.20 -4 8 -9 12.60 -5 4.80 -9 10.40 -9 12.60 -0.20 2 -2.80 6 -6 8.80 -3.40 2.80 -6 6.80 -6 9.40 0 2.60 -1.20 4.60 -2.40 4.60 -3.40 0 -11.60 8.80 -11.60 12.20 -0.20 1.60 -2.80 5 -6 7.80 -3.40 2.60 -6 6.80 -6 9.20 0 2.40 -1.40 4.80 -3 5.60 -1.60 0.60 -3 2.20 -3 3.60 -0.20 1.40 -2.80 4.80 -6 7.60 -3.40 2.60 -6 6.60 -6 9 -0.20 2.20 -2.80 6.20 -6 9 -3.40 2.60 -6 6.60 -6 9 -0.20 2.20 -2.80 6.20 -6 9 -3.40 2.60 -6 6.40 -6 8.40 0 2 -4 7.60 -9 12.20 -5.20 5.20 -9 10.60 -9 13 0 2.40 -1.20 4.40 -2.80 4.40 -3 0 -9.20 10.40 -9.20 15.80 -0.20 1.80 -2.80 5.40 -6 8.20 -3.40 2.60 -6 6.40 -6 8.40 0 4 -4.80 9.40 -12.80 14.60 -2.80 2 -5.20 5.40 -5.20 7.80 -0.20 2.20 -2.80 6.40 -6 9.20 -3.40 2.60 -6 6.60 -6 9 -0.20 2.20 -2.80 6.20 -6 9 -3.40 2.60 -6 6.80 -6 9.20 0 2.40 -1.40 4.80 -3 5.60 -1.60 0.60 -3 2.40 -3 4 0 1.40 -1.40 3.20 -3 4 -1.60 0.60 -3 3 -3 5.20 0 2.20 -4 8 -9 12.60 -5.20 5.20 -9 10.60 -9 13 0 2.40 -1.20 4.40 -2.40 4.40 -3.80 0 -11.60 9 -11.60 13.20 -0.20 2.20 -2.80 6 -6 8.80 -3.40 2.60 -6 6.60 -6 9 -0.20 2.20 -2.80 6.20 -6 9 -3.40 2.60 -6 5.80 -6 7.20 0 1.40 -1.40 2.80 -3 3.60 -1.60 0.60 -3 2.60 -3 4.60 -0.20 2 -2.80 5.80 -6 8.60 -3.40 2.60 -6 6.40 -6 8.40 0 1.80 -2.20 5.80 -5 8.80 -2.80 3 -5 7 -5 9.20 0 2 -4 7.60 -9 12.20 -5 4.80 -9 10.20 -9 12 0 3.80 -5.60 10 -10.60 12 -2 0.80 -3.40 3.40 -3.40 6.20 0 2.60 -1.40 5.20 -3 6 -1.60 0.60 -3 2.40 -3 4 0 1.40 -1.40 3.20 -3 4 -1.60 0.60 -3 3.20 -3 5.60 -0.20 2.60 -2.80 6.80 -6 9.60 -3.40 2.60 -6 6.40 -6 8.40 0 2 -4 7.60 -9 12.20 -5 4.80 -9 10.40 -9 12.60 0 2.20 -2.60 5.40 -6 7.40 -3.60 2.20 -6 5.40 -6 8 -0.20 2.40 -2.80 6.60 -6 9.40 -3.80 3 -6 6.80 -6 10 -0.20 3 -2.40 6.80 -6 10 -3.40 2.60 -6 6.40 -6 8.40 0 4 -5.40 10.20 -10.60 12.20 -1.80 0.60 -3.40 3.20 -3.40 5.40 0 2.20 -4 8 -9 12.60 -5 4.80 -9 10.60 -9 12.80 0 2.40 -2.20 6.20 -5 8.80 -2.60 2.60 -5 6.80 -5 9 0 2.40 -1.40 4.80 -3 5.60 -1.60 0.60 -3 2.40 -3 4 0 1.40 -1.40 3.20 -3 4 -1.60 0.60 -3 3 -3 5.20 0 2.20 -4 8 -9 12.60 -5 4.80 -9 10 -9 11.60 -0.20 1.60 -2.80 5 -6 7.80 -3.40 2.60 -6 6.60 -6 9 -0.20 2.20 -2.80 6.20 -6 9 -3.40 2.80 -6 6.80 -6 9.40 0 2.60 -1 4.60 -2.20 4.60 -4.20 0 -17.80 15.40 -17.80 20.20 -0.20 2.80 -2.60 6.80 -6 9.80 -3.40 2.60 -6 6.60 -6 9 -0.20 2.20 -2.80 6.20 -6 9 -3.40 2.60 -6 6.40 -6 8.40 0 2 -4 7.60 -9 12.20 -5 4.80 -9 10.40 -9 12.60 -0.20 2 -2.80 6 -6 8.80 -3.40 2.60 -6 6.60 -6 9 0 2.40 -2.40 5.60 -6 7.60 -4.20 2.60 -6 5.20 -6 9 -0.20 5.40 -4 12.40 -7 12.40 -3 0 -11 9.20 -11 13 -0.20 2.20 -2.80 6.20 -6 9 -3.40 2.60 -6 6.60 -6 9 -0.20 2.20 -2.80 6.20 -6 9 -3.40 2.60 -6 6.40 -6 8.40 0 2 -5.40 8.80 -12 15.20 -8 7.80 -12 13.40 -12 16.60 -0.20 2.80 -2.60 6.80 -6 9.80 -3.40 2.60 -6 6.40 -6 8.40 0 2 -4 7.60 -9 12.20 -5 4.80 -9 10.20 -9 12 0 1.80 -1 3.40 -2.20 3.40 -3.60 0 -11.80 8.60 -11.80 12.60 0 1.80 -4 7.40 -9 12 -5.60 5.60 -9 10.40 -9 13.60 -0.20 2.80 -2.60 6.80 -6 9.80 -3.40 2.60 -6 6.40 -6 8.40 0 1.80 -2.20 5.80 -5 8.80 -2.80 3 -5 7.20 -5 9.60 -0.20 2.40 -2.80 6.40 -6 9.20 -3.40 2.60 -6 6.40 -6 8.40 0 2 -4 7.60 -9 12.20 -5 4.80 -9 10.20 -9 12 0 3.80 -5.60 10 -10.60 12 -2 0.80 -3.40 3.60 -3.40 6.80 -0.20 3.60 -2.20 7.20 -6 10.60 -3.40 2.60 -6 6 -6 7.40 0 1.40 -4 6.60 -9 11.20 -5 4.80 -9 10.40 -9 12.60 -0.20 2 -2.80 6 -6 8.80 -3.40 2.60 -6 6.60 -6 9 -0.20 2.20 -2.80 6.20 -6 9 -3.40 2.60 -6 6.80 -6 9.20 0 2.40 -1.40 4.80 -3 5.60 -1.60 0.60 -3 2.20 -3 3.60 -0.20 1.40 -2.80 4.80 -6 7.60 -3.40 2.60 -6 6.60 -6 9 -0.20 2.20 -2.80 6.20 -6 9 -3.40 2.80 -6 6.80 -6 9.40 0 2.60 -1.20 4.60 -2.40 4.60 -3.60 0 -11.60 9 -11.60 12.60 0 1.80 -2.20 5.60 -5 8.60 -2.80 3 -5 6.60 -5 8.20 0 1.40 -4 6.60 -9 11.20 -5.60 5.60 -9 10.40 -9 13.60 -0.20 2.80 -2.60 6.80 -6 9.80 -3.40 2.60 -6 6.60 -6 9 -0.20 2.20 -2.80 6.20 -6 9 -3.40 2.60 -6 6.40 -6 8.40 0 2 -4 7.60 -9 12.20 -5 4.80 -9 10.20 -9 12 0 3.80 -5.60 10 -10.60 12 -2 0.80 -3.40 3.40 -3.40 6.20 0 2.60 -1.40 5.20 -3 6 -1.60 0.60 -3 2.40 -3 4 0 1.40 -1.40 3.20 -3 4 -1.60 0.60 -3 3 -3 5.20 0 2.20 -4 8 -9 12.60 -5 4.80 -9 10 -9 11.60 -0.20 1.60 -2.80 5 -6 7.80 -3.40 2.60 -6 6.60 -6 9 -0.20 2.20 -2.80 6.20 -6 9 -3.40 2.60 -6 6.40 -6 8.20 0 2 -3.60 7.20 -8 11.80 -5.20 5.40 -8 10.20 -8 13.60 -0.20 3.40 -2.40 7.20 -6 10.40 -3.40 2.80 -6 6.80 -6 9.40 0 2.60 -1.20 4.60 -2.40 4.60 -3.60 0 -11.60 9 -11.60 12.80 0 1.80 -4 7.20 -9 11.80 -5 4.80 -9 10.40 -9 12.60 -0.20 2 -2.80 6 -6 8.80 -3.40 2.60 -6 6.80 -6 9.20 0 2.40 -1.40 4.80 -3 5.60 -1.60 0.60 -3 2.40 -3 4 0 1.40 -1.40 3.20 -3 4 -1.60 0.60 -3 2.40 -3 4.20 0 1.60 -4 7 -9 11.60 -5 4.80 -9 10.40 -9 12.60 -0.20 2 -2.80 6 -6 8.80 -3.40 2.60 -6 6.40 -6 8.40 0 4 -5.40 10.20 -10.60 12.20 -1.80 0.60 -3.40 3.20 -3.40 5.40 0 2.20 -4 8 -9 12.60 -5.60 5.60 -9 10.40 -9 13.60 -0.20 2.80 -2.60 6.80 -6 9.80 -3.40 2.60 -6 6.40 -6 8.40 0 1.80 -2.20 5.80 -5 8.80 -2.80 3 -5 7.20 -5 9.60 -0.20 2.40 -2.80 6.40 -6 9.20 -3.40 2.60 -6 6 -6 7.40 0 1.40 -4 6.60 -9 11.20 -5 4.80 -9 10.60 -9 12.80 0 2.40 -1.40 4.60 -3 5.40 -1.60 0.60 -3 2.40 -3 4 0 1.40 -1.40 3.20 -3 4 -1.60 0.60 -3 3.40 -3 6.20 0 2.80 -1.20 5 -2.40 5 -3.60 0 -11.60 9 -11.60 12.80 0 1.80 -4 7.20 -9 11.80 -5 4.80 -9 10.40 -9 12.60 -0.20 2 -2.80 6 -6 8.80 -3.40 2.60 -6 6.60 -6 9 -0.20 2.20 -2.80 6.20 -6 9 -3.60 2.80 -6 6.80 -6 9.40 0 3 -3.40 8 -9 13.20 -5 4.80 -9 10.40 -9 12.60 0 2.20 -2.60 5.40 -6 7.40 -3.40 2 -6 5.40 -6 7.60 0 4.20 -5.40 10.40 -10.60 12.40 -2 0.80 -3.40 3.40 -3.40 6.20 0 2.80 -3 7.80 -8 12.80 -4.40 4.40 -8 9.80 -8 12 0 2.20 -1.40 4.40 -3 5.20 -1.60 0.60 -3 2.40 -3 4 0 1.40 -1.40 3.20 -3 4 -1.60 0.60 -3 3.20 -3 5.60 -0.20 2.60 -2.80 6.80 -6 9.60 -3.40 2.60 -6 6.60 -6 9 -0.20 2.20 -2.80 6.20 -6 9 -3.40 2.60 -6 6.40 -6 8.40 0 2 -4 7.60 -9 12.20 -5 4.80 -9 10.40 -9 12.60 -0.20 2 -2.80 6 -6 8.80 -3.40 2.80 -6 6.80 -6 9.40 0 2.60 -1.20 4.60 -2.40 4.60 -3.60 0 -11.60 9 -11.60 12.80 0 1.80 -4 7.20 -9 11.80 -5 4.80 -9 10.40 -9 12.60 -0.20 2 -2.80 6 -6 8.80 -3.40 2.60 -6 6.60 -6 9 -0.20 2.20 -2.80 6.20 -6 9 -3.40 2.60 -6 6.40 -6 8.60 0 2 -2.40 5.80 -5.20 8.40 -6 5.60 -10.80 13.80 -10.80 18.80 -0.20 1.80 -2.80 5.40 -6 8.20 -3.40 2.60 -6 6.40 -6 8.40 0 4 -5.40 10.20 -10.60 12.20 -2 0.80 -3.40 3.40 -3.40 6.40 0 2.80 -0.80 5 -1.60 5 -3.60 0 -16.40 13.40 -16.40 17 -0.20 2.20 -2.80 6.20 -6 9 -3.80 3 -6 6.80 -6 10 -0.20 3 -2.40 6.80 -6 10 -3.40 2.60 -6 6.40 -6 8.40 0 2 -4 7.60 -9 12.20 -5 4.80 -9 10.20 -9 12 0 1.80 -4.60 7.80 -10 13.40 -8.20 8 -11.60 10 -16.80 10 -4.20 0 -7.20 -1.20 -8 -3z"/>
 </g>
 <g fill="#000000">
 </g>
<g opacity="0.5" transform="rotate(-45, 2000.0, 2000.0)">
  <text x="50%" y="50%" font-size="20" text-anchor="middle" fill="lightgray" dominant-baseline="middle">
    generated by vectorizer.io
  </text>
</g>
</svg>